<?xml version="1.0" encoding="UTF-8" standalone="no"?>
<svg
   x="0px"
   y="0px"
   viewBox="0 0 225.18906 221.6037"
   xml:space="preserve"
   xmlns:inkscape="http://www.inkscape.org/namespaces/inkscape"
   xmlns:sodipodi="http://sodipodi.sourceforge.net/DTD/sodipodi-0.dtd"
   xmlns="http://www.w3.org/2000/svg"
   xmlns:svg="http://www.w3.org/2000/svg"><defs
   id="defs25" /><sodipodi:namedview
   id="namedview25"
   pagecolor="#ffffff"
   bordercolor="#000000"
   borderopacity="0.25"
   inkscape:showpageshadow="2"
   inkscape:pageopacity="0.0"
   inkscape:pagecheckerboard="0"
   inkscape:deskcolor="#d1d1d1"
   inkscape:zoom="1.026"
   inkscape:cx="61.890838"
   inkscape:cy="203.21637"
   inkscape:window-width="1366"
   inkscape:window-height="705"
   inkscape:window-x="-8"
   inkscape:window-y="-8"
   inkscape:window-maximized="1"
   inkscape:current-layer="svg25" />

<g
   id="OBJECTS"
   transform="translate(-140.5578,-126.188)">
	<g
   id="g25">
		<g
   id="g24">
			<linearGradient
   id="SVGID_1_"
   gradientUnits="userSpaceOnUse"
   x1="423.18521"
   y1="302.05261"
   x2="166.4859"
   y2="173.8947">
				<stop
   offset="0"
   style="stop-color:#7A42C7"
   id="stop1" />
				<stop
   offset="0.5302"
   style="stop-color:#2D1F80"
   id="stop2" />
				<stop
   offset="1"
   style="stop-color:#538ACD"
   id="stop3" />
			</linearGradient>
			<path
   style="fill:url(#SVGID_1_)"
   d="m 249.999,126.188 c -49.375,0 -89.401,40.026 -89.401,89.401 0,49.375 40.026,89.401 89.401,89.401 49.375,0 89.401,-40.026 89.401,-89.401 0,-49.375 -40.026,-89.401 -89.401,-89.401 z m 0,167.677 c -43.23,0 -78.276,-35.045 -78.276,-78.276 0,-43.231 35.045,-78.276 78.276,-78.276 43.231,0 78.276,35.045 78.276,78.276 0,43.231 -35.045,78.276 -78.276,78.276 z"
   id="path3" />
			
				<linearGradient
   id="SVGID_00000005241123890231701530000012899608365163175823_"
   gradientUnits="userSpaceOnUse"
   x1="412.79761"
   y1="285.54419"
   x2="152.77721"
   y2="155.7282">
				<stop
   offset="0"
   style="stop-color:#7A42C7"
   id="stop4" />
				<stop
   offset="0.5302"
   style="stop-color:#2D1F80"
   id="stop5" />
				<stop
   offset="1"
   style="stop-color:#538ACD"
   id="stop6" />
			</linearGradient>
			<path
   style="fill:url(#SVGID_00000005241123890231701530000012899608365163175823_)"
   d="m 261.591,180.795 c -21.945,-7.271 -43.058,-11.785 -61.186,-13.551 -1.722,4.492 -4.524,8.677 -6.206,13.255 15.653,-2.469 39.4,0.386 64.596,8.734 40.877,13.543 70.076,36.408 65.218,51.069 -1.467,4.426 -5.873,7.597 -12.431,9.497 -1.833,5.031 -3.949,10.042 -6.334,14.985 26.942,1.824 46.238,-2.892 49.966,-14.144 6.402,-19.322 -35.515,-50.592 -93.623,-69.845 z"
   id="path6" />
			
				<linearGradient
   id="SVGID_00000048468930320519355920000001199815940667983757_"
   gradientUnits="userSpaceOnUse"
   x1="249.9994"
   y1="98.305603"
   x2="249.9994"
   y2="355.4408">
				<stop
   offset="0"
   style="stop-color:#7A42C7"
   id="stop7" />
				<stop
   offset="0.5302"
   style="stop-color:#2D1F80"
   id="stop8" />
				<stop
   offset="1"
   style="stop-color:#538ACD"
   id="stop9" />
			</linearGradient>
			<circle
   style="fill:url(#SVGID_00000048468930320519355920000001199815940667983757_)"
   cx="249.99899"
   cy="216.41901"
   r="54.293999"
   id="circle9" />
			
				<linearGradient
   id="SVGID_00000149350541738734264160000003626407241631612801_"
   gradientUnits="userSpaceOnUse"
   x1="404.06561"
   y1="303.03409"
   x2="144.04539"
   y2="173.2182">
				<stop
   offset="0"
   style="stop-color:#7A42C7"
   id="stop10" />
				<stop
   offset="0.5302"
   style="stop-color:#2D1F80"
   id="stop11" />
				<stop
   offset="1"
   style="stop-color:#538ACD"
   id="stop12" />
			</linearGradient>
			<path
   style="fill:url(#SVGID_00000149350541738734264160000003626407241631612801_)"
   d="m 241.204,242.328 c -40.877,-13.543 -70.076,-36.408 -65.219,-51.069 1.863,-5.624 8.472,-9.222 18.214,-10.759 1.681,-4.578 4.483,-8.763 6.206,-13.255 -29.874,-2.909 -51.637,1.652 -55.621,13.676 -6.402,19.322 35.515,50.592 93.624,69.845 24.268,8.041 47.519,12.71 66.84,14.018 2.384,-4.942 4.501,-9.954 6.334,-14.985 -15.163,4.393 -41.842,1.983 -70.378,-7.471 z"
   id="path12" />
			
				<linearGradient
   id="SVGID_00000119116836398944781460000003184384196892066713_"
   gradientUnits="userSpaceOnUse"
   x1="230.04871"
   y1="98.305603"
   x2="230.04871"
   y2="355.4407">
				<stop
   offset="0"
   style="stop-color:#7A42C7"
   id="stop13" />
				<stop
   offset="0.5302"
   style="stop-color:#2D1F80"
   id="stop14" />
				<stop
   offset="1"
   style="stop-color:#538ACD"
   id="stop15" />
			</linearGradient>
			<path
   style="fill:url(#SVGID_00000119116836398944781460000003184384196892066713_)"
   d="m 234.406,153.003 c 0,2.406 -1.951,4.357 -4.357,4.357 -2.407,0 -4.357,-1.951 -4.357,-4.357 0,-2.407 1.951,-4.357 4.357,-4.357 2.406,0 4.357,1.951 4.357,4.357 z"
   id="path15" />
			
				<linearGradient
   id="SVGID_00000098185272472117589580000017884828786434680744_"
   gradientUnits="userSpaceOnUse"
   x1="247.8681"
   y1="98.305702"
   x2="247.8681"
   y2="355.43991">
				<stop
   offset="0"
   style="stop-color:#7A42C7"
   id="stop16" />
				<stop
   offset="0.5302"
   style="stop-color:#2D1F80"
   id="stop17" />
				<stop
   offset="1"
   style="stop-color:#538ACD"
   id="stop18" />
			</linearGradient>
			<circle
   style="fill:url(#SVGID_00000098185272472117589580000017884828786434680744_)"
   cx="247.868"
   cy="163.69"
   r="8.9949999"
   id="circle18" />
			
				<linearGradient
   id="SVGID_00000065768129637344929480000012918398259639708069_"
   gradientUnits="userSpaceOnUse"
   x1="238.8728"
   y1="98.305702"
   x2="238.8728"
   y2="355.43991">
				<stop
   offset="0"
   style="stop-color:#7A42C7"
   id="stop19" />
				<stop
   offset="0.5302"
   style="stop-color:#2D1F80"
   id="stop20" />
				<stop
   offset="1"
   style="stop-color:#538ACD"
   id="stop21" />
			</linearGradient>
			<circle
   style="fill:url(#SVGID_00000065768129637344929480000012918398259639708069_)"
   cx="238.873"
   cy="268.19101"
   r="8.9949999"
   id="circle21" />
			
				<linearGradient
   id="SVGID_00000064335316401523218240000009526278739496217487_"
   gradientUnits="userSpaceOnUse"
   x1="255.4881"
   y1="98.304001"
   x2="255.4881"
   y2="355.44131">
				<stop
   offset="0"
   style="stop-color:#7A42C7"
   id="stop22" />
				<stop
   offset="0.5302"
   style="stop-color:#2D1F80"
   id="stop23" />
				<stop
   offset="1"
   style="stop-color:#538ACD"
   id="stop24" />
			</linearGradient>
			<circle
   style="fill:url(#SVGID_00000064335316401523218240000009526278739496217487_)"
   cx="255.48801"
   cy="282.80499"
   r="3.848"
   id="circle24" />
		</g>
		
			<text
   style="font-style:normal;font-variant:normal;font-weight:800;font-stretch:normal;font-size:30.6929px;font-family:Montserrat;-inkscape-font-specification:'Montserrat Ultra-Bold';fill:#ffffff;fill-opacity:1;stroke-width:1.01064"
   id="text24"
   x="136.93515"
   y="351.04825"
   transform="scale(1.010599,0.98951217)">NEBULA CHIC</text>
		
			
	</g>
</g>
</svg>
